<svg xmlns="http://www.w3.org/2000/svg" viewBox="0 0 900 560"><defs><linearGradient id="sky" x1="0" x2="0" y1="0" y2="1"><stop stop-color="#e2f3eb"/><stop offset="1" stop-color="#fff"/></linearGradient></defs><rect width="900" height="560" fill="url(#sky)"/><circle cx="725" cy="115" r="60" fill="#f3d779"/><path d="M0 360c120-60 225-88 355-38s218 57 330 15 167-35 215 5v218H0z" fill="#88aa70"/><path d="M0 420c145-65 281-76 418-12s320 44 482-10v162H0z" fill="#5f8d55"/><path d="M116 440c124-92 246-105 367-7" stroke="#f7e8ac" stroke-width="11" fill="none"/><path d="M555 372l45 72 45-72z" fill="#116b45"/><rect x="590" y="250" width="20" height="130" fill="#5b3b24"/><circle cx="600" cy="225" r="64" fill="#2f7b4f"/><text x="55" y="75" font-family="Arial" font-size="34" font-weight="800" fill="#116b45">Land & Plots</text></svg>
